#!OML:ASF H:\MichaelJackson\Top Level 1\Subject 1\Session 1\male.ASF
:FULLY-SPECIFIED
:DEGREES
1170
root 4.61012 16.8016 9.85423 5.2702 19.8172 -2.74768
lowerback -8.99301 -4.75967 7.17391
upperback -3.39368 -6.92599 1.27845
thorax 0.785715 -3.49979 -3.28
lowerneck -3.42499 -3.34741 2.79332
upperneck 2.76842 -4.5328 -2.02635
head 1.32309 -2.27132 -1.19514
rclavicle -1.05853e-013 1.35174e-014
rhumerus 33.4296 -43.1626 -8.95874
rradius 27.6009
rwrist -11.3647
rhand -43.301 -54.0527
rfingers 7.12502
rthumb -16.1482 276.6
lclavicle -1.05853e-013 1.35174e-014
lhumerus -53.8267 -29.5458 117.249
lradius 48.2102
lwrist 17.4833
lhand 19.4711 18.8802
lfingers 7.12502
lthumb 44.042 42.7474
rfemur -13.2749 3.31617 11.6368
rtibia 30.5116
rfoot -20.0105 17.8655
rtoes 23.7362
lfemur -3.22254 -11.5607 -1.18173
ltibia 12.5638
lfoot -17.7576 -17.3813
ltoes 17.7793
1171
root 4.60258 16.8009 9.84364 5.09795 19.5049 -2.76083
lowerback -8.76803 -4.67046 7.07387
upperback -3.32047 -6.7846 1.22243
thorax 0.758889 -3.42888 -3.25633
lowerneck -3.46498 -3.42427 2.75475
upperneck 2.8183 -4.6421 -1.7895
head 1.34867 -2.32168 -1.11802
rclavicle -8.57259e-015 1.51076e-014
rhumerus 33.7658 -43.1697 -9.72893
rradius 27.4383
rwrist -12.2515
rhand -43.3995 -53.9758
rfingers 7.12502
rthumb -16.243 276.685
lclavicle -8.57259e-015 1.51076e-014
lhumerus -53.6276 -29.5736 117.179
lradius 47.9487
lwrist 15.7828
lhand 19.8252 17.7269
lfingers 7.12502
lthumb 44.3722 41.4695
rfemur -13.2581 3.29644 11.6466
rtibia 30.5814
rfoot -19.9083 18.1985
rtoes 23.8825
lfemur -2.92971 -11.2967 -1.20216
ltibia 12.4802
lfoot -17.6397 -17.487
ltoes 17.8877
1172
root 4.59418 16.8017 9.83404 4.97828 19.2425 -2.73028
lowerback -8.58111 -4.58922 6.90809
upperback -3.25782 -6.65149 1.16668
thorax 0.748574 -3.3612 -3.20083
lowerneck -3.55695 -3.49963 2.68767
upperneck 2.90856 -4.74974 -1.54647
head 1.39736 -2.37115 -1.03655
rclavicle 5.20319e-014 -2.8625e-014
rhumerus 33.8938 -43.1397 -10.2677
rradius 27.3123
rwrist -12.5918
rhand -43.559 -53.7695
rfingers 7.12502
rthumb -16.3966 276.904
lclavicle 5.20319e-014 -2.8625e-014
lhumerus -53.4287 -29.5257 117.069
lradius 47.7365
lwrist 14.3562
lhand 20.071 16.7177
lfingers 7.12502
lthumb 44.6012 40.3727
rfemur -13.2655 3.29148 11.6197
rtibia 30.6488
rfoot -19.8267 18.4507
rtoes 23.969
lfemur -2.70274 -11.0672 -1.25148
ltibia 12.3976
lfoot -17.5104 -17.5766
ltoes 17.9044
1173
root 4.58546 16.8036 9.8253 4.91986 19.041 -2.65647
lowerback -8.44224 -4.51416 6.68976
upperback -3.21006 -6.52605 1.11615
thorax 0.754494 -3.29662 -3.1159
lowerneck -3.70066 -3.56962 2.59321
upperneck 3.03692 -4.84943 -1.33456
head 1.46791 -2.4172 -0.96249
rclavicle 3.71976e-014 -9.54166e-015
rhumerus 33.7564 -43.0154 -10.4594
rradius 27.2297
rwrist -12.4254
rhand -43.6732 -53.435
rfingers 7.12502
rthumb -16.5065 277.247
lclavicle 3.71976e-014 -9.54166e-015
lhumerus -53.2572 -29.4591 116.97
lradius 47.6188
lwrist 13.41
lhand 20.1726 16.0206
lfingers 7.12502
lthumb 44.6958 39.639
rfemur -13.3059 3.2898 11.5527
rtibia 30.7171
rfoot -19.7694 18.6289
rtoes 24.0043
lfemur -2.55032 -10.9091 -1.33426
ltibia 12.317
lfoot -17.4004 -17.6003
ltoes 17.7778
1174
root 4.57688 16.8059 9.81749 4.91695 18.9085 -2.55471
lowerback -8.35653 -4.44314 6.44792
upperback -3.17802 -6.40792 1.07289
thorax 0.775291 -3.23523 -3.01529
lowerneck -3.87545 -3.6313 2.48404
upperneck 3.18588 -4.93606 -1.18345
head 1.55036 -2.45783 -0.906214
rclavicle 5.85669e-014 1.27222e-014
rhumerus 33.3621 -42.7875 -10.2877
rradius 27.195
rwrist -11.9222
rhand -43.6871 -52.9896
rfingers 7.12502
rthumb -16.52 277.694
lclavicle 5.85669e-014 1.27222e-014
lhumerus -53.1352 -29.4285 116.919
lradius 47.6218
lwrist 13.0646
lhand 20.155 15.7953
lfingers 7.12502
lthumb 44.6795 39.42
rfemur -13.3743 3.28587 11.4593
rtibia 30.7844
rfoot -19.7386 18.7396
rtoes 24.0141
lfemur -2.47349 -10.8517 -1.43837
ltibia 12.2457
lfoot -17.3246 -17.5359
ltoes 17.5482
1175
root 4.569 16.808 9.81049 4.95117 18.854 -2.45531
lowerback -8.31916 -4.37708 6.23002
upperback -3.15944 -6.30136 1.0372
thorax 0.80489 -3.17966 -2.92421
lowerneck -4.05802 -3.68195 2.37324
upperneck 3.33617 -5.00532 -1.10275
head 1.63394 -2.4912 -0.871733
rclavicle 1.83876e-015 1.31198e-014
rhumerus 32.8026 -42.503 -9.86019
rradius 27.2013
rwrist -11.2547
rhand -43.5889 -52.4897
rfingers 7.12502
rthumb -16.4254 278.186
lclavicle 1.83876e-015 1.31198e-014
lhumerus -53.0747 -29.4647 116.926
lradius 47.7438
lwrist 13.3075
lhand 20.0647 16.0765
lfingers 7.12502
lthumb 44.5953 39.7337
rfemur -13.4563 3.26939 11.3688
rtibia 30.8458
rfoot -19.7285 18.7954
rtoes 24.0205
lfemur -2.46908 -10.9064 -1.53482
ltibia 12.1959
lfoot -17.2985 -17.3818
ltoes 17.2283
1176
root 4.56222 16.8097 9.80411 5.00359 18.8797 -2.37921
lowerback -8.31744 -4.3181 6.07128
upperback -3.15234 -6.2107 1.00459
thorax 0.833794 -3.13262 -2.86559
lowerneck -4.22744 -3.71891 2.27763
upperneck 3.47492 -5.05382 -1.08968
head 1.71036 -2.5156 -0.860034
rclavicle 5.9039e-014 1.15295e-014
rhumerus 32.2126 -42.2435 -9.35085
rradius 27.2314
rwrist -10.5962
rhand -43.4148 -51.9743
rfingers 7.12502
rthumb -16.2578 278.687
lclavicle 5.9039e-014 1.15295e-014
lhumerus -53.0826 -29.5812 116.986
lradius 47.9493
lwrist 13.9999
lhand 19.9103 16.7378
lfingers 7.12502
lthumb 44.4515 40.4502
rfemur -13.5352 3.23273 11.3021
rtibia 30.8942
rfoot -19.7322 18.8048
rtoes 24.0294
lfemur -2.53274 -11.054 -1.60261
ltibia 12.1841
lfoot -17.3276 -17.167
ltoes 16.8516
1177
root 4.55672 16.8104 9.79819 5.04925 18.983 -2.3521
lowerback -8.33619 -4.27043 6.0016
upperback -3.1504 -6.14298 0.975892
thorax 0.856803 -3.09783 -2.85437
lowerneck -4.37177 -3.73769 2.2043
upperneck 3.5918 -5.07628 -1.12697
head 1.7743 -2.52809 -0.866189
rclavicle 1.00287e-013 -5.1684e-015
rhumerus 31.7106 -42.0782 -8.91426
rradius 27.269
rwrist -10.082
rhand -43.2242 -51.5085
rfingers 7.12502
rthumb -16.0743 279.138
lclavicle 1.00287e-013 -5.1684e-015
lhumerus -53.1415 -29.7616 117.072
lradius 48.1901
lwrist 14.9553
lhand 19.7217 17.5981
lfingers 7.12502
lthumb 44.2757 41.3773
rfemur -13.5919 3.17611 11.2867
rtibia 30.9252
rfoot -19.7451 18.7723
rtoes 24.0492
lfemur -2.65218 -11.2728 -1.61362
ltibia 12.2243
lfoot -17.4046 -16.9368
ltoes 16.4838
